<svg width="174" height="43" viewBox="0 0 174 43" fill="none" xmlns="http://www.w3.org/2000/svg">
<path d="M18.5254 19.4379C18.5254 23.0265 21.8866 24.5681 24.995 24.5681C31.4647 24.5681 35.9631 18.5534 35.9631 13.6253C35.9631 10.0367 32.6524 8.49512 29.4934 8.49512C22.392 8.52039 18.5254 14.99 18.5254 19.4379Z" fill="#EA1D2C"/>
<path d="M9.90675 2H4.42273L3.56348 6.4226H9.02223L9.90675 2Z" fill="#EA1D2C"/>
<path d="M8.54194 8.84961H3.05791L0 24.2403H5.48403L8.54194 8.84961Z" fill="#EA1D2C"/>
<path d="M9.09761 11.9066H10.9677L7.63184 28.5609H13.1159L16.4518 11.9066H20.47L21.1018 8.84871H17.0583L17.1847 8.1411C17.4374 6.82695 17.867 5.31063 19.9393 5.31063C21.1524 5.31063 22.3401 5.43699 23.4774 5.94243L24.1092 2.70762C22.8456 2.22745 21.4809 2 20.1415 2C15.7442 2 12.7115 4.67883 11.5995 8.84871H9.70414L9.09761 11.9066Z" fill="#EA1D2C"/>
<path d="M27.7244 36.395C22.67 35.8137 18.6518 32.3515 17.0091 28.6112H16.6553C17.6662 34.4743 22.7711 40.2869 30.1253 40.7418C35.9631 41.1209 41.3208 39.3265 45.3137 35.839L46.9564 40.5143L49.332 28.6112L38.2881 28.5859L42.0031 31.4417C38.6925 34.6765 32.6525 36.951 27.7244 36.395Z" fill="#EA1D2C"/>
<path d="M42.3056 24.5925C48.7752 24.5925 53.2736 18.5778 53.2736 13.6498C53.2736 10.0611 49.9377 8.51953 46.804 8.51953C39.7026 8.51953 35.8359 14.9892 35.8359 19.4623C35.8359 23.0257 39.1718 24.5925 42.3056 24.5925Z" fill="#EA1D2C"/>
<path d="M56.3065 24.5936C59.4655 24.5936 61.6389 23.0015 62.5487 21.5357H62.8772L62.2202 24.2398L67.6789 24.2145L72.0004 2.30371L66.5164 2.32898L65.2023 8.84916C64.4946 8.69753 63.7618 8.59644 62.9783 8.59644C57.5954 8.62171 52.7432 15.5715 52.7432 20.5501C52.7684 22.5971 54.0826 24.5936 56.3065 24.5936Z" fill="#EA1D2C"/>
<path d="M85.0654 18.2041C84.2738 18.2041 83.5439 18.0062 82.876 17.6104C82.2204 17.2021 81.7008 16.627 81.3174 15.8848C80.9339 15.1302 80.7422 14.2643 80.7422 13.2871C80.7422 12.347 80.9277 11.5059 81.2988 10.7637C81.6823 10.0215 82.208 9.4401 82.876 9.01953C83.5439 8.58659 84.2985 8.37012 85.1396 8.37012C86.2777 8.37012 87.1621 8.75977 87.793 9.53906V4.43652C87.793 4.37467 87.8115 4.33138 87.8486 4.30664C87.8857 4.26953 87.929 4.25098 87.9785 4.25098H89.2773C89.3392 4.25098 89.3825 4.26953 89.4072 4.30664C89.4443 4.33138 89.4629 4.37467 89.4629 4.43652V17.8145C89.4629 17.8639 89.4443 17.9072 89.4072 17.9443C89.3825 17.9814 89.3392 18 89.2773 18H88.0713C88.0218 18 87.9785 17.9814 87.9414 17.9443C87.9043 17.9072 87.8857 17.8639 87.8857 17.8145V16.9053C87.5518 17.3135 87.1497 17.6351 86.6797 17.8701C86.2096 18.0928 85.6715 18.2041 85.0654 18.2041ZM85.251 16.6641C85.7952 16.6641 86.29 16.528 86.7354 16.2559C87.1807 15.9837 87.5332 15.6126 87.793 15.1426V12.4336C87.793 11.679 87.5518 11.0729 87.0693 10.6152C86.5993 10.1452 85.9993 9.91016 85.2695 9.91016C84.7253 9.91016 84.2367 10.0524 83.8037 10.3369C83.3831 10.609 83.0492 11.0049 82.8018 11.5244C82.5667 12.0316 82.4492 12.6191 82.4492 13.2871C82.4492 13.9427 82.5667 14.5241 82.8018 15.0312C83.0368 15.5384 83.3646 15.9404 83.7852 16.2373C84.2057 16.5218 84.6943 16.6641 85.251 16.6641ZM96.1426 18.2041C95.252 18.2041 94.4479 18 93.7305 17.5918C93.0254 17.1712 92.4749 16.5898 92.0791 15.8477C91.6833 15.0931 91.4854 14.2334 91.4854 13.2686C91.4854 12.3656 91.6771 11.543 92.0605 10.8008C92.4564 10.0462 92.9945 9.45247 93.6748 9.01953C94.3675 8.58659 95.1406 8.37012 95.9941 8.37012C96.7982 8.37012 97.5094 8.56185 98.1279 8.94531C98.7588 9.32878 99.2474 9.86068 99.5938 10.541C99.9401 11.209 100.113 11.9635 100.113 12.8047C100.113 13.0026 100.095 13.2438 100.058 13.5283C100.058 13.6396 99.9958 13.6953 99.8721 13.6953H93.1553C93.2419 14.623 93.5573 15.3529 94.1016 15.8848C94.6582 16.4043 95.3385 16.6641 96.1426 16.6641C97.194 16.6641 97.9795 16.2497 98.499 15.4209C98.5238 15.3714 98.5609 15.3405 98.6104 15.3281C98.6598 15.3158 98.7093 15.3219 98.7588 15.3467L99.7793 15.8662C99.8783 15.9281 99.9154 15.9961 99.8906 16.0703C99.5443 16.7135 99.0495 17.2331 98.4062 17.6289C97.7754 18.0124 97.0208 18.2041 96.1426 18.2041ZM98.4619 12.248C98.3877 11.5182 98.1217 10.9492 97.6641 10.541C97.2064 10.1204 96.6374 9.91016 95.957 9.91016C95.2767 9.91016 94.6891 10.1266 94.1943 10.5596C93.7119 10.9801 93.3903 11.543 93.2295 12.248H98.4619ZM106.162 17.8516C106.125 17.9505 106.057 18 105.958 18H104.585C104.486 18 104.418 17.9505 104.381 17.8516L100.688 8.79688L100.67 8.72266C100.67 8.67318 100.682 8.63607 100.707 8.61133C100.744 8.58659 100.787 8.57422 100.837 8.57422H102.266C102.365 8.57422 102.433 8.6237 102.47 8.72266L105.327 16.0889L108.166 8.72266C108.203 8.6237 108.271 8.57422 108.37 8.57422H109.688C109.749 8.57422 109.793 8.59896 109.817 8.64844C109.854 8.68555 109.861 8.73503 109.836 8.79688L106.162 17.8516ZM115.013 18.2041C114.122 18.2041 113.318 18 112.601 17.5918C111.896 17.1712 111.345 16.5898 110.949 15.8477C110.553 15.0931 110.355 14.2334 110.355 13.2686C110.355 12.3656 110.547 11.543 110.931 10.8008C111.326 10.0462 111.865 9.45247 112.545 9.01953C113.238 8.58659 114.011 8.37012 114.864 8.37012C115.668 8.37012 116.38 8.56185 116.998 8.94531C117.629 9.32878 118.118 9.86068 118.464 10.541C118.81 11.209 118.983 11.9635 118.983 12.8047C118.983 13.0026 118.965 13.2438 118.928 13.5283C118.928 13.6396 118.866 13.6953 118.742 13.6953H112.025C112.112 14.623 112.427 15.3529 112.972 15.8848C113.528 16.4043 114.209 16.6641 115.013 16.6641C116.064 16.6641 116.85 16.2497 117.369 15.4209C117.394 15.3714 117.431 15.3405 117.48 15.3281C117.53 15.3158 117.579 15.3219 117.629 15.3467L118.649 15.8662C118.748 15.9281 118.785 15.9961 118.761 16.0703C118.414 16.7135 117.92 17.2331 117.276 17.6289C116.646 18.0124 115.891 18.2041 115.013 18.2041ZM117.332 12.248C117.258 11.5182 116.992 10.9492 116.534 10.541C116.076 10.1204 115.507 9.91016 114.827 9.91016C114.147 9.91016 113.559 10.1266 113.064 10.5596C112.582 10.9801 112.26 11.543 112.1 12.248H117.332ZM123.195 18.2041C123.158 18.2041 123.109 18.1855 123.047 18.1484C122.268 17.6784 121.729 17.1712 121.433 16.627C121.148 16.0827 121.006 15.3714 121.006 14.4932V4.43652C121.006 4.37467 121.024 4.33138 121.062 4.30664C121.099 4.26953 121.142 4.25098 121.191 4.25098H122.49C122.552 4.25098 122.595 4.26953 122.62 4.30664C122.657 4.33138 122.676 4.37467 122.676 4.43652V14.3447C122.676 14.7777 122.707 15.124 122.769 15.3838C122.843 15.6436 122.973 15.8786 123.158 16.0889C123.344 16.2992 123.622 16.5404 123.993 16.8125C124.08 16.8867 124.092 16.9733 124.03 17.0723L123.325 18.1113C123.288 18.1732 123.245 18.2041 123.195 18.2041ZM129.671 18.2041C128.78 18.2041 127.989 17.9938 127.296 17.5732C126.616 17.1527 126.084 16.5713 125.7 15.8291C125.329 15.0745 125.144 14.221 125.144 13.2686C125.144 12.3532 125.335 11.5244 125.719 10.7822C126.102 10.0277 126.64 9.4401 127.333 9.01953C128.026 8.58659 128.805 8.37012 129.671 8.37012C130.549 8.37012 131.328 8.5804 132.009 9.00098C132.701 9.42155 133.233 10.0029 133.604 10.7451C133.988 11.4873 134.18 12.3285 134.18 13.2686C134.18 14.1963 133.982 15.0374 133.586 15.792C133.202 16.5465 132.664 17.1403 131.972 17.5732C131.291 17.9938 130.524 18.2041 129.671 18.2041ZM129.671 16.6641C130.215 16.6641 130.698 16.528 131.118 16.2559C131.551 15.9714 131.885 15.5755 132.12 15.0684C132.355 14.5488 132.473 13.9489 132.473 13.2686C132.473 12.6006 132.355 12.013 132.12 11.5059C131.885 10.9987 131.551 10.609 131.118 10.3369C130.698 10.0524 130.215 9.91016 129.671 9.91016C129.127 9.91016 128.638 10.0524 128.205 10.3369C127.785 10.609 127.451 10.9987 127.203 11.5059C126.968 12.013 126.851 12.6006 126.851 13.2686C126.851 13.9489 126.968 14.5488 127.203 15.0684C127.451 15.5755 127.785 15.9714 128.205 16.2559C128.638 16.528 129.127 16.6641 129.671 16.6641ZM137.872 21.8037C137.872 21.8656 137.854 21.9089 137.816 21.9336C137.792 21.9707 137.748 21.9893 137.687 21.9893H136.388C136.338 21.9893 136.295 21.9707 136.258 21.9336C136.221 21.9089 136.202 21.8656 136.202 21.8037V8.75977C136.202 8.69792 136.221 8.65462 136.258 8.62988C136.295 8.59277 136.338 8.57422 136.388 8.57422H137.594C137.656 8.57422 137.699 8.59277 137.724 8.62988C137.761 8.65462 137.779 8.69792 137.779 8.75977V9.70605C138.113 9.28548 138.528 8.95768 139.022 8.72266C139.53 8.48763 140.099 8.37012 140.729 8.37012C141.509 8.37012 142.214 8.57422 142.845 8.98242C143.488 9.37826 143.995 9.95345 144.366 10.708C144.737 11.4502 144.923 12.3099 144.923 13.2871C144.923 14.2272 144.737 15.0684 144.366 15.8105C143.995 16.5527 143.482 17.1403 142.826 17.5732C142.183 17.9938 141.453 18.2041 140.637 18.2041C140.018 18.2041 139.474 18.099 139.004 17.8887C138.546 17.6784 138.169 17.3939 137.872 17.0352V21.8037ZM140.507 16.6641C141.026 16.6641 141.49 16.528 141.898 16.2559C142.319 15.9714 142.641 15.5755 142.863 15.0684C143.098 14.5488 143.216 13.9551 143.216 13.2871C143.216 12.6315 143.104 12.0501 142.882 11.543C142.659 11.0358 142.344 10.64 141.936 10.3555C141.54 10.0586 141.076 9.91016 140.544 9.91016C139.987 9.91016 139.474 10.0462 139.004 10.3184C138.534 10.5905 138.157 10.9616 137.872 11.4316V14.1406C137.872 14.6478 137.99 15.0931 138.225 15.4766C138.46 15.86 138.775 16.1569 139.171 16.3672C139.579 16.5651 140.024 16.6641 140.507 16.6641ZM151.064 18.2041C150.174 18.2041 149.37 18 148.652 17.5918C147.947 17.1712 147.397 16.5898 147.001 15.8477C146.605 15.0931 146.407 14.2334 146.407 13.2686C146.407 12.3656 146.599 11.543 146.982 10.8008C147.378 10.0462 147.916 9.45247 148.597 9.01953C149.289 8.58659 150.062 8.37012 150.916 8.37012C151.72 8.37012 152.431 8.56185 153.05 8.94531C153.681 9.32878 154.169 9.86068 154.516 10.541C154.862 11.209 155.035 11.9635 155.035 12.8047C155.035 13.0026 155.017 13.2438 154.979 13.5283C154.979 13.6396 154.918 13.6953 154.794 13.6953H148.077C148.164 14.623 148.479 15.3529 149.023 15.8848C149.58 16.4043 150.26 16.6641 151.064 16.6641C152.116 16.6641 152.901 16.2497 153.421 15.4209C153.446 15.3714 153.483 15.3405 153.532 15.3281C153.582 15.3158 153.631 15.3219 153.681 15.3467L154.701 15.8662C154.8 15.9281 154.837 15.9961 154.812 16.0703C154.466 16.7135 153.971 17.2331 153.328 17.6289C152.697 18.0124 151.943 18.2041 151.064 18.2041ZM153.384 12.248C153.31 11.5182 153.044 10.9492 152.586 10.541C152.128 10.1204 151.559 9.91016 150.879 9.91016C150.199 9.91016 149.611 10.1266 149.116 10.5596C148.634 10.9801 148.312 11.543 148.151 12.248H153.384ZM158.728 17.8145C158.728 17.8639 158.709 17.9072 158.672 17.9443C158.647 17.9814 158.604 18 158.542 18H157.243C157.194 18 157.15 17.9814 157.113 17.9443C157.076 17.9072 157.058 17.8639 157.058 17.8145V8.75977C157.058 8.69792 157.076 8.65462 157.113 8.62988C157.15 8.59277 157.194 8.57422 157.243 8.57422H158.486C158.548 8.57422 158.591 8.59277 158.616 8.62988C158.653 8.65462 158.672 8.69792 158.672 8.75977V10.2441C159.167 9.76172 159.655 9.36589 160.138 9.05664C160.632 8.7474 161.164 8.51855 161.733 8.37012H161.789C161.876 8.37012 161.931 8.4196 161.956 8.51855L162.271 9.85449V9.8916C162.271 9.99056 162.222 10.0524 162.123 10.0771C161.467 10.2008 160.868 10.3864 160.323 10.6338C159.791 10.8688 159.259 11.2028 158.728 11.6357V17.8145Z" fill="#717171"/>
<path d="M82.7539 38.8242C82.7539 38.873 82.7344 38.917 82.6953 38.9561C82.666 38.9854 82.627 39 82.5781 39H81.2744C81.2256 39 81.1816 38.9854 81.1426 38.9561C81.1133 38.917 81.0986 38.873 81.0986 38.8242V28.5996C81.0986 28.5508 81.1133 28.5117 81.1426 28.4824C81.1816 28.4434 81.2256 28.4238 81.2744 28.4238H82.6221C82.7197 28.4238 82.7881 28.4678 82.8271 28.5557L86.2109 35.3086L89.5361 28.5557C89.585 28.4678 89.6533 28.4238 89.7412 28.4238H91.0889C91.1377 28.4238 91.1768 28.4434 91.2061 28.4824C91.2451 28.5117 91.2646 28.5508 91.2646 28.5996V38.8242C91.2646 38.873 91.2451 38.917 91.2061 38.9561C91.1768 38.9854 91.1377 39 91.0889 39H89.7705C89.7217 39 89.6777 38.9854 89.6387 38.9561C89.6094 38.917 89.5947 38.873 89.5947 38.8242V31.6758L86.958 37.0957C86.9189 37.1836 86.8506 37.2275 86.7529 37.2275H85.5811C85.4932 37.2275 85.4248 37.1836 85.376 37.0957L82.7539 31.7783V38.8242ZM96.6553 39.1758C95.9326 39.1758 95.2832 39.0146 94.707 38.6924C94.1406 38.3604 93.6963 37.8965 93.374 37.3008C93.0615 36.6953 92.9053 36.0068 92.9053 35.2354C92.9053 34.5127 93.0566 33.8584 93.3594 33.2725C93.6719 32.6768 94.1016 32.208 94.6484 31.8662C95.1953 31.5244 95.8203 31.3535 96.5234 31.3535C97.1777 31.3535 97.7539 31.5049 98.252 31.8076C98.7598 32.1104 99.1504 32.5352 99.4238 33.082C99.707 33.6191 99.8486 34.2295 99.8486 34.9131C99.8486 35.0303 99.8389 35.2256 99.8193 35.499C99.7998 35.6064 99.7363 35.6602 99.6289 35.6602H94.5459C94.6143 36.3145 94.8438 36.8223 95.2344 37.1836C95.625 37.5449 96.1084 37.7256 96.6846 37.7256C97.417 37.7256 97.9785 37.4326 98.3691 36.8467C98.4277 36.7393 98.5059 36.7148 98.6035 36.7734L99.5996 37.2715C99.707 37.3301 99.7412 37.3936 99.7021 37.4619C99.4287 37.9893 99.0332 38.4092 98.5156 38.7217C97.998 39.0244 97.3779 39.1758 96.6553 39.1758ZM98.252 34.4004C98.1934 33.873 98.0029 33.4678 97.6807 33.1846C97.3682 32.8916 96.9775 32.7451 96.5088 32.7451C96.0303 32.7451 95.6201 32.8965 95.2783 33.1992C94.9365 33.4922 94.707 33.8926 94.5898 34.4004H98.252ZM102.969 38.8242C102.969 38.873 102.949 38.917 102.91 38.9561C102.881 38.9854 102.842 39 102.793 39H101.504C101.455 39 101.411 38.9854 101.372 38.9561C101.343 38.917 101.328 38.873 101.328 38.8242V31.7051C101.328 31.6562 101.343 31.6172 101.372 31.5879C101.411 31.5488 101.455 31.5293 101.504 31.5293H102.734C102.783 31.5293 102.822 31.5488 102.852 31.5879C102.891 31.6172 102.91 31.6562 102.91 31.7051V32.7891C103.262 32.418 103.623 32.1152 103.994 31.8809C104.375 31.6465 104.785 31.4707 105.225 31.3535L105.283 31.3389C105.352 31.3389 105.4 31.3877 105.43 31.4854L105.708 32.8184L105.723 32.877C105.723 32.9551 105.674 33.0039 105.576 33.0234C105.068 33.1016 104.604 33.2285 104.185 33.4043C103.765 33.5801 103.359 33.8242 102.969 34.1367V38.8242ZM109.795 39.1758C109.072 39.1758 108.433 39.0098 107.876 38.6777C107.329 38.3359 106.899 37.8672 106.587 37.2715C106.284 36.6758 106.133 36.002 106.133 35.25C106.133 34.5078 106.289 33.8389 106.602 33.2432C106.914 32.6475 107.349 32.1836 107.905 31.8516C108.472 31.5098 109.106 31.3389 109.81 31.3389C110.542 31.3389 111.143 31.5049 111.611 31.8369C112.09 32.1689 112.456 32.6182 112.71 33.1846C112.729 33.2236 112.739 33.2529 112.739 33.2725C112.739 33.3408 112.7 33.3896 112.622 33.4189L111.553 33.873C111.533 33.8828 111.504 33.8877 111.465 33.8877C111.396 33.8877 111.348 33.8535 111.318 33.7852C110.967 33.1699 110.464 32.8623 109.81 32.8623C109.419 32.8623 109.072 32.9648 108.77 33.1699C108.467 33.375 108.232 33.6582 108.066 34.0195C107.9 34.3809 107.817 34.791 107.817 35.25C107.817 35.7285 107.9 36.1533 108.066 36.5244C108.232 36.8857 108.467 37.1689 108.77 37.374C109.072 37.5693 109.414 37.667 109.795 37.667C110.508 37.667 111.055 37.3447 111.436 36.7002C111.494 36.6025 111.577 36.5781 111.685 36.627L112.71 37.0811C112.759 37.1006 112.793 37.1299 112.812 37.1689C112.832 37.1982 112.832 37.2324 112.812 37.2715C112.559 37.8477 112.178 38.3115 111.67 38.6631C111.162 39.0049 110.537 39.1758 109.795 39.1758ZM115.698 38.8242C115.698 38.873 115.679 38.917 115.64 38.9561C115.61 38.9854 115.571 39 115.522 39H114.233C114.185 39 114.141 38.9854 114.102 38.9561C114.072 38.917 114.058 38.873 114.058 38.8242V28.3213C114.058 28.2725 114.072 28.2334 114.102 28.2041C114.141 28.165 114.185 28.1455 114.233 28.1455H115.522C115.571 28.1455 115.61 28.165 115.64 28.2041C115.679 28.2334 115.698 28.2725 115.698 28.3213V32.5693C116.382 31.7588 117.207 31.3535 118.174 31.3535C118.994 31.3535 119.634 31.6172 120.093 32.1445C120.552 32.6719 120.781 33.3896 120.781 34.2979V38.8242C120.781 38.873 120.762 38.917 120.723 38.9561C120.693 38.9854 120.654 39 120.605 39H119.316C119.268 39 119.224 38.9854 119.185 38.9561C119.155 38.917 119.141 38.873 119.141 38.8242V34.4297C119.141 33.9414 119.028 33.5605 118.804 33.2871C118.589 33.0039 118.267 32.8623 117.837 32.8623C117.095 32.8623 116.382 33.2627 115.698 34.0635V38.8242ZM125.498 39.1758C124.902 39.1758 124.355 39.0195 123.857 38.707C123.359 38.3848 122.959 37.9307 122.656 37.3447C122.363 36.749 122.217 36.0557 122.217 35.2646C122.217 34.5029 122.358 33.8242 122.642 33.2285C122.935 32.6328 123.335 32.1689 123.843 31.8369C124.351 31.5049 124.917 31.3389 125.542 31.3389C126.001 31.3389 126.401 31.4316 126.743 31.6172C127.085 31.793 127.358 32.0371 127.563 32.3496V31.7051C127.563 31.6562 127.578 31.6172 127.607 31.5879C127.646 31.5488 127.69 31.5293 127.739 31.5293H128.955C129.004 31.5293 129.043 31.5488 129.072 31.5879C129.111 31.6172 129.131 31.6562 129.131 31.7051V35.5869C129.131 36.1826 129.18 36.6758 129.277 37.0664C129.375 37.4473 129.556 37.8721 129.819 38.3408C129.839 38.3799 129.849 38.4141 129.849 38.4434C129.849 38.4922 129.814 38.5361 129.746 38.5752L128.647 39.1172C128.608 39.1367 128.579 39.1465 128.56 39.1465C128.511 39.1465 128.462 39.1172 128.413 39.0586C128.159 38.6875 127.969 38.2822 127.842 37.8428C127.598 38.2432 127.271 38.5654 126.86 38.8096C126.46 39.0537 126.006 39.1758 125.498 39.1758ZM125.776 37.667C126.147 37.667 126.479 37.5547 126.772 37.3301C127.075 37.1055 127.314 36.8076 127.49 36.4365V34.6934C127.49 34.1367 127.334 33.6924 127.021 33.3604C126.709 33.0283 126.299 32.8623 125.791 32.8623C125.225 32.8623 124.766 33.082 124.414 33.5215C124.072 33.9512 123.901 34.5322 123.901 35.2646C123.901 35.7529 123.979 36.1777 124.136 36.5391C124.302 36.9004 124.526 37.1787 124.81 37.374C125.093 37.5693 125.415 37.667 125.776 37.667ZM132.764 38.8242C132.764 38.873 132.744 38.917 132.705 38.9561C132.676 38.9854 132.637 39 132.588 39H131.299C131.25 39 131.206 38.9854 131.167 38.9561C131.138 38.917 131.123 38.873 131.123 38.8242V31.7051C131.123 31.6562 131.138 31.6172 131.167 31.5879C131.206 31.5488 131.25 31.5293 131.299 31.5293H132.529C132.578 31.5293 132.617 31.5488 132.646 31.5879C132.686 31.6172 132.705 31.6562 132.705 31.7051V32.584C133.086 32.1738 133.481 31.8662 133.892 31.6611C134.312 31.4561 134.761 31.3535 135.239 31.3535C136.06 31.3535 136.699 31.6172 137.158 32.1445C137.617 32.6719 137.847 33.3896 137.847 34.2979V38.8242C137.847 38.873 137.827 38.917 137.788 38.9561C137.759 38.9854 137.72 39 137.671 39H136.382C136.333 39 136.289 38.9854 136.25 38.9561C136.221 38.917 136.206 38.873 136.206 38.8242V34.4297C136.206 33.9414 136.094 33.5605 135.869 33.2871C135.654 33.0039 135.332 32.8623 134.902 32.8623C134.16 32.8623 133.447 33.2627 132.764 34.0635V38.8242ZM143.574 39.1025C142.715 38.9463 142.041 38.7363 141.553 38.4727C141.064 38.1992 140.713 37.8477 140.498 37.418C140.283 36.9883 140.176 36.4365 140.176 35.7627V33.0234H138.813C138.765 33.0234 138.721 33.0088 138.682 32.9795C138.652 32.9404 138.638 32.8965 138.638 32.8477V31.7051C138.638 31.6562 138.652 31.6172 138.682 31.5879C138.721 31.5488 138.765 31.5293 138.813 31.5293H140.176V29.5518C140.176 29.5029 140.19 29.4639 140.22 29.4346C140.259 29.3955 140.303 29.376 140.352 29.376H141.641C141.689 29.376 141.729 29.3955 141.758 29.4346C141.797 29.4639 141.816 29.5029 141.816 29.5518V31.5293H144.014C144.062 31.5293 144.102 31.5488 144.131 31.5879C144.17 31.6172 144.189 31.6562 144.189 31.7051V32.8477C144.189 32.8965 144.17 32.9404 144.131 32.9795C144.102 33.0088 144.062 33.0234 144.014 33.0234H141.816V35.6016C141.816 36.0312 141.875 36.3682 141.992 36.6123C142.119 36.8564 142.339 37.0566 142.651 37.2129C142.964 37.3691 143.438 37.5107 144.072 37.6377C144.189 37.6572 144.238 37.7256 144.219 37.8428L143.999 39C143.989 39.0879 143.936 39.1318 143.838 39.1318L143.574 39.1025ZM150.063 34.9131C150.063 34.9619 150.044 35.0059 150.005 35.0449C149.976 35.0742 149.937 35.0889 149.888 35.0889H145.2C145.151 35.0889 145.107 35.0742 145.068 35.0449C145.039 35.0059 145.024 34.9619 145.024 34.9131V33.6387C145.024 33.5898 145.039 33.5508 145.068 33.5215C145.107 33.4824 145.151 33.4629 145.2 33.4629H149.888C149.937 33.4629 149.976 33.4824 150.005 33.5215C150.044 33.5508 150.063 33.5898 150.063 33.6387V34.9131ZM152.056 38.8535C152.026 38.9512 151.958 39 151.851 39H150.444C150.376 39 150.327 38.9854 150.298 38.9561C150.278 38.917 150.278 38.8633 150.298 38.7949L154.253 28.5557C154.282 28.4678 154.351 28.4238 154.458 28.4238H155.981C156.089 28.4238 156.157 28.4678 156.187 28.5557L160.171 38.7949C160.181 38.8145 160.186 38.8389 160.186 38.8682C160.186 38.9561 160.132 39 160.024 39H158.501C158.394 39 158.325 38.9512 158.296 38.8535L157.461 36.583H152.891L152.056 38.8535ZM155.161 30.4014L153.477 34.9863H156.86L155.161 30.4014ZM163.35 38.8242C163.35 38.873 163.33 38.917 163.291 38.9561C163.262 38.9854 163.223 39 163.174 39H161.782C161.733 39 161.689 38.9854 161.65 38.9561C161.621 38.917 161.606 38.873 161.606 38.8242V28.5996C161.606 28.5508 161.621 28.5117 161.65 28.4824C161.689 28.4434 161.733 28.4238 161.782 28.4238H165.21C166.011 28.4238 166.709 28.5752 167.305 28.8779C167.9 29.1807 168.354 29.6006 168.667 30.1377C168.989 30.6748 169.15 31.29 169.15 31.9834C169.15 32.667 168.989 33.2773 168.667 33.8145C168.354 34.3516 167.9 34.7715 167.305 35.0742C166.709 35.377 166.011 35.5283 165.21 35.5283H163.35V38.8242ZM165.21 33.9023C165.894 33.9023 166.426 33.7314 166.807 33.3896C167.188 33.0381 167.378 32.5693 167.378 31.9834C167.378 31.3975 167.188 30.9287 166.807 30.5771C166.426 30.2256 165.894 30.0498 165.21 30.0498H163.35V33.9023H165.21ZM172.314 38.8242C172.314 38.873 172.295 38.917 172.256 38.9561C172.227 38.9854 172.188 39 172.139 39H170.747C170.698 39 170.654 38.9854 170.615 38.9561C170.586 38.917 170.571 38.873 170.571 38.8242V28.5996C170.571 28.5508 170.586 28.5117 170.615 28.4824C170.654 28.4434 170.698 28.4238 170.747 28.4238H172.139C172.188 28.4238 172.227 28.4434 172.256 28.4824C172.295 28.5117 172.314 28.5508 172.314 28.5996V38.8242Z" fill="#EA1D2C"/>
</svg>
